<?xml version="1.0" standalone="no"?>
<!DOCTYPE svg PUBLIC "-//W3C//DTD SVG 20010904//EN"
 "http://www.w3.org/TR/2001/REC-SVG-20010904/DTD/svg10.dtd">
<svg version="1.0" xmlns="http://www.w3.org/2000/svg"
 width="251.000000pt" height="201.000000pt" viewBox="0 0 251.000000 201.000000"
 preserveAspectRatio="xMidYMid meet">
<metadata>
Created by potrace 1.16, written by Peter Selinger 2001-2019
</metadata>
<g transform="translate(0.000000,201.000000) scale(0.100000,-0.100000)"
fill="#000000" stroke="none">
<path d="M1163 1419 c9 -5 17 -18 17 -27 -1 -9 -52 -82 -116 -161 l-115 -143
54 -62 c30 -33 125 -133 211 -221 86 -88 156 -161 156 -162 0 -2 -17 -3 -38
-3 -48 0 -57 8 -266 233 -164 177 -174 192 -204 297 -8 27 -10 -7 -10 -140 0
-161 1 -172 14 -142 26 59 51 44 202 -118 75 -80 154 -155 175 -167 49 -28
101 -29 149 -4 36 18 38 18 90 0 56 -19 129 -23 163 -9 18 8 18 9 -6 9 -47 2
-125 31 -185 69 -39 25 -125 109 -244 236 -102 109 -186 201 -188 205 -3 9
211 260 241 283 12 9 38 21 57 26 29 9 17 10 -70 11 -76 0 -100 -2 -87 -10z"/>
<path d="M1284 1291 c-81 -20 -134 -84 -134 -162 0 -62 15 -84 142 -219 70
-74 118 -134 126 -157 27 -77 62 -88 62 -20 0 62 -29 109 -150 237 -120 127
-137 157 -121 212 16 53 53 78 113 78 63 0 86 -13 106 -58 l17 -37 3 54 c5 79
2 81 -70 80 -35 -1 -77 -4 -94 -8z"/>
</g>
</svg>
